HIERARCHY
ROOT Hips
{
	OFFSET 0.000000 0.000000 0.000000
	CHANNELS 6 Xposition Yposition Zposition Xrotation Yrotation Zrotation
	JOINT LeftUpLeg_virtual
	{
		OFFSET 0.000000 0.000000 0.000000
		CHANNELS 3 Xrotation Yrotation Zrotation
		JOINT LeftUpLeg
		{
			OFFSET 15.427100 -6.655098 0.678600
			CHANNELS 3 Xrotation Yrotation Zrotation
			JOINT LeftLeg
			{
				OFFSET 4.081073 -39.591068 13.024000
				CHANNELS 3 Xrotation Yrotation Zrotation
				JOINT LeftFoot
				{
					OFFSET -4.081074 -37.707932 -15.979700
					CHANNELS 3 Xrotation Yrotation Zrotation
					JOINT LeftToeBase
					{
						OFFSET 5.346399 -15.068900 20.645000
						CHANNELS 3 Xrotation Yrotation Zrotation
						JOINT LeftToe_End
						{
							OFFSET 2.754700 0.931300 11.300900
							CHANNELS 3 Xrotation Yrotation Zrotation
							End Site
							{
								OFFSET 0 0 0
							}
						}
					}
				}
			}
		}
	}
	JOINT RightUpLeg_virtual
	{
		OFFSET 0.000000 0.000000 0.000000
		CHANNELS 3 Xrotation Yrotation Zrotation
		JOINT RightUpLeg
		{
			OFFSET -15.569500 -6.655098 0.678600
			CHANNELS 3 Xrotation Yrotation Zrotation
			JOINT RightLeg
			{
				OFFSET -4.081825 -39.591045 13.023800
				CHANNELS 3 Xrotation Yrotation Zrotation
				JOINT RightFoot
				{
					OFFSET 4.081824 -37.707954 -15.979600
					CHANNELS 3 Xrotation Yrotation Zrotation
					JOINT RightToeBase
					{
						OFFSET -5.346400 -15.068900 20.645000
						CHANNELS 3 Xrotation Yrotation Zrotation
						JOINT RightToe_End
						{
							OFFSET -2.754700 0.931300 11.300900
							CHANNELS 3 Xrotation Yrotation Zrotation
							End Site
							{
								OFFSET 0 0 0
							}
						}
					}
				}
			}
		}
	}
	JOINT Spine_virtual
	{
		OFFSET 0.000000 0.000000 0.000000
		CHANNELS 3 Xrotation Yrotation Zrotation
		JOINT Spine
		{
			OFFSET -0.279200 12.230698 -2.892100
			CHANNELS 3 Xrotation Yrotation Zrotation
			JOINT Spine1
			{
				OFFSET -0.232667 10.192268 -1.242267
				CHANNELS 3 Xrotation Yrotation Zrotation
				JOINT Spine1_split
				{
					OFFSET -0.232667 10.192268 -1.242267
					CHANNELS 3 Xrotation Yrotation Zrotation
					JOINT Spine2
					{
						OFFSET -0.232667 10.192268 -1.242267
						CHANNELS 3 Xrotation Yrotation Zrotation
						JOINT Neck_virtual
						{
							OFFSET 0.000000 0.000000 0.000000
							CHANNELS 3 Xrotation Yrotation Zrotation
							JOINT Neck
							{
								OFFSET -0.418800 17.814194 8.416900
								CHANNELS 3 Xrotation Yrotation Zrotation
								JOINT Head
								{
									OFFSET 0.000000 7.031097 3.806800
									CHANNELS 3 Xrotation Yrotation Zrotation
									JOINT HeadTop_End
									{
										OFFSET 0.000000 24.646606 12.978600
										CHANNELS 3 Xrotation Yrotation Zrotation
										End Site
										{
											OFFSET 0 0 0
										}
									}
								}
							}
						}
						JOINT LeftShoulder_virtual
						{
							OFFSET 0.000000 0.000000 0.000000
							CHANNELS 3 Xrotation Yrotation Zrotation
							JOINT LeftShoulder
							{
								OFFSET 8.476499 7.247704 -3.868750
								CHANNELS 3 Xrotation Yrotation Zrotation
								JOINT LeftShoulder_split
								{
									OFFSET 8.476499 7.247704 -3.868750
									CHANNELS 3 Xrotation Yrotation Zrotation
									JOINT LeftArm
									{
										OFFSET 9.308998 -2.777710 0.208600
										CHANNELS 3 Xrotation Yrotation Zrotation
										JOINT LeftForeArm
										{
											OFFSET 29.972298 0.000000 0.000000
											CHANNELS 3 Xrotation Yrotation Zrotation
											JOINT LeftHand
											{
												OFFSET 26.026505 0.000000 0.000000
												CHANNELS 3 Xrotation Yrotation Zrotation
												End Site
												{
													OFFSET 0 0 0
												}
											}
										}
									}
								}
							}
						}
						JOINT RightShoulder_virtual
						{
							OFFSET 0.000000 0.000000 0.000000
							CHANNELS 3 Xrotation Yrotation Zrotation
							JOINT RightShoulder
							{
								OFFSET -7.570500 7.247704 -3.868750
								CHANNELS 3 Xrotation Yrotation Zrotation
								JOINT RightShoulder_split
								{
									OFFSET -7.570500 7.247704 -3.868750
									CHANNELS 3 Xrotation Yrotation Zrotation
									JOINT RightArm
									{
										OFFSET -9.308998 -2.777710 0.208500
										CHANNELS 3 Xrotation Yrotation Zrotation
										JOINT RightForeArm
										{
											OFFSET -29.972300 0.000000 0.000000
											CHANNELS 3 Xrotation Yrotation Zrotation
											JOINT RightHand
											{
												OFFSET -26.026505 0.000000 0.000000
												CHANNELS 3 Xrotation Yrotation Zrotation
												End Site
												{
													OFFSET 0 0 0
												}
											}
										}
									}
								}
							}
						}
					}
				}
			}
		}
	}
}
MOTION
Frames: 11
Frame Time: 0.03333333
8.076115 47.832024 -29.736353 0.000000 0.000000 0.000000 64.771708 3.961001 1.355925 8.405092 11.730302 14.830147 3.708413 -5.262446 -11.306156 -38.514112 30.166514 -3.294218 -20.135186 -10.507107 -4.449257 0.000000 0.000000 0.000000 63.424153 -3.814858 4.092808 -4.373090 -18.895577 -13.516980 6.804199 6.775240 -0.396376 -32.762864 -28.622085 7.419297 -19.700702 -1.122146 6.469185 0.000000 0.000000 0.000000 72.342324 0.624535 0.009331 9.799900 2.627051 0.439459 -4.894133 -1.562803 1.833662 0.049913 0.439941 0.051814 0.000000 0.000000 0.000000 -2.779016 -0.088506 1.840548 -16.844027 11.315170 6.964297 -7.486967 -16.230073 -5.740368 0.000000 0.000000 0.000000 -3.238555 -0.840509 1.153735 1.358308 1.597165 3.335739 2.831624 0.886835 -4.332123 -42.118338 -64.283125 -49.163271 -2.401203 -14.166609 -2.220130 0.000000 0.000000 0.000000 -0.227458 -0.157902 1.765765 -2.843093 3.036741 11.905938 -3.881123 0.499891 3.248152 -47.916410 51.111456 53.668580 -28.209474 26.007388 14.238281 0.000000 0.000000 0.000000 
8.071934 47.713310 -29.723547 0.000000 0.000000 0.000000 64.514811 3.961434 1.511038 8.566354 11.910018 14.587170 3.382588 -5.183913 -11.340387 -38.994206 30.257735 -3.043339 -19.997985 -10.400634 -4.539549 0.000000 0.000000 0.000000 63.240086 -4.088351 4.346679 -4.604080 -19.039770 -13.711464 7.048367 6.817762 -0.289924 -32.745508 -28.324557 7.373338 -19.550349 -1.140956 6.526381 0.000000 0.000000 0.000000 72.469127 0.648696 0.259981 9.948591 2.679668 0.423252 -4.917956 -1.561550 1.846105 0.047393 0.413945 0.038618 0.000000 0.000000 0.000000 -2.740980 -0.087455 1.859462 -16.910736 11.276144 6.869718 -7.496051 -15.992109 -5.665972 0.000000 0.000000 0.000000 -3.238622 -0.849870 1.153335 1.417831 1.442699 3.434255 3.370570 0.826680 -4.064532 -42.936471 -63.977419 -49.864882 -2.351549 -14.335874 -2.239441 0.000000 0.000000 0.000000 -0.209087 -0.158070 1.829600 -2.765443 3.448987 11.890173 -3.741421 0.318818 3.079057 -48.401299 50.417089 53.634634 -28.140846 26.464533 14.418229 0.000000 0.000000 0.000000 
8.067338 47.591637 -29.761042 0.000000 0.000000 0.000000 64.316128 4.070937 1.566898 8.473810 12.059140 14.742444 3.060666 -5.234236 -11.591885 -38.793432 30.482721 -3.486716 -19.503378 -10.349974 -4.370315 0.000000 0.000000 0.000000 63.039757 -4.228859 4.474233 -4.791285 -19.329596 -13.977938 7.210579 6.867289 -0.139454 -32.657037 -27.698533 7.330544 -19.915892 -1.135409 6.622163 0.000000 0.000000 0.000000 72.525797 0.640315 0.546945 10.102878 2.774600 0.439451 -4.933741 -1.575047 1.858631 0.036431 0.379710 0.043082 0.000000 0.000000 0.000000 -2.680055 -0.098881 1.876290 -16.743625 11.236786 6.645701 -7.456482 -15.758203 -5.637840 0.000000 0.000000 0.000000 -3.187526 -0.877172 1.139894 1.462488 1.105558 3.696147 4.053185 1.013931 -3.822916 -43.189680 -63.905449 -50.181984 -2.061893 -14.942135 -2.101486 0.000000 0.000000 0.000000 -0.132039 -0.170994 1.889525 -2.753629 4.147697 11.849463 -3.698976 -0.003499 2.943694 -47.555513 49.319409 52.548351 -28.079007 28.237469 14.694684 0.000000 0.000000 0.000000 
8.061865 47.477188 -29.811735 0.000000 0.000000 0.000000 64.148399 4.332058 1.497059 8.172028 12.169981 15.214584 2.572631 -5.351095 -12.009256 -37.830902 30.776009 -4.458882 -19.226955 -10.366437 -3.954393 0.000000 0.000000 0.000000 62.891931 -4.208930 4.475662 -4.889027 -19.698324 -14.296748 7.313141 6.821955 -0.004214 -32.582120 -26.889673 7.194648 -20.731130 -1.125103 6.757314 0.000000 0.000000 0.000000 72.532968 0.606516 0.841786 10.231203 2.899909 0.494942 -4.923485 -1.613473 1.866021 0.019611 0.332616 0.053602 0.000000 0.000000 0.000000 -2.595210 -0.132444 1.892051 -16.366325 11.201322 6.304797 -7.453528 -15.535054 -5.665745 0.000000 0.000000 0.000000 -3.072893 -0.928547 1.113599 1.495402 0.643896 4.130107 4.691056 1.446472 -3.717937 -42.997755 -63.939764 -50.129142 -1.591270 -15.799310 -1.812937 0.000000 0.000000 0.000000 0.005282 -0.199803 1.943098 -2.815772 5.147567 11.746530 -3.734622 -0.355782 2.831779 -45.746981 47.880552 50.700467 -27.946168 30.975543 14.971831 0.000000 0.000000 0.000000 
8.058031 47.395645 -29.863440 0.000000 0.000000 0.000000 64.031603 4.746042 1.290099 7.843718 12.397393 15.810035 1.676924 -5.166162 -12.451071 -36.743522 30.961572 -5.091862 -19.584558 -10.451673 -3.397034 0.000000 0.000000 0.000000 62.817653 -4.088778 4.398202 -4.926065 -20.064543 -14.659475 7.417912 6.573519 0.107527 -32.530985 -26.031237 6.913613 -21.654075 -1.099382 6.911935 0.000000 0.000000 0.000000 72.488183 0.613329 1.085145 10.300974 3.045417 0.599435 -4.873117 -1.694775 1.861394 -0.005968 0.270197 0.056463 0.000000 0.000000 0.000000 -2.457321 -0.198810 1.904008 -15.798905 11.171813 5.868067 -7.567506 -15.357033 -5.723263 0.000000 0.000000 0.000000 -2.873060 -1.013823 1.069038 1.514673 0.091211 4.708715 5.249928 1.978415 -3.776505 -42.472001 -63.922907 -49.633810 -1.054167 -16.690122 -1.418684 0.000000 0.000000 0.000000 0.214938 -0.251204 1.984662 -2.958512 6.463683 11.524076 -3.643400 -0.740525 2.632483 -43.557513 46.165969 48.444814 -27.690594 34.266810 15.155483 0.000000 0.000000 0.000000 
7.978803 47.393364 -29.885416 0.000000 0.000000 0.000000 63.978642 5.247292 0.997020 7.505804 12.784519 16.389268 0.448948 -4.700442 -12.740072 -35.537129 31.044859 -5.355790 -20.424788 -10.543095 -2.886435 0.000000 0.000000 0.000000 62.803767 -3.883804 4.266246 -4.947757 -20.332329 -14.989897 7.492088 6.054115 0.212711 -32.549833 -25.214509 6.419584 -22.292368 -1.034435 7.079399 0.000000 0.000000 0.000000 72.481797 0.715186 1.255523 10.247574 3.215598 0.768830 -4.741431 -1.822133 1.837444 -0.033703 0.230507 0.053299 0.000000 0.000000 0.000000 -2.241950 -0.304977 1.903713 -15.087338 11.121334 5.356947 -7.845035 -15.241147 -5.809888 0.000000 0.000000 0.000000 -2.584839 -1.134668 0.997603 1.521639 -0.532075 5.369267 5.702736 2.447891 -3.981014 -41.669987 -63.742877 -48.651492 -0.582879 -17.465104 -1.006284 0.000000 0.000000 0.000000 0.512135 -0.329269 1.999923 -3.161856 8.095606 11.142486 -3.525395 -1.071936 2.368791 -41.499099 44.208881 46.040775 -27.224615 37.684350 15.125787 0.000000 0.000000 0.000000 
7.795990 47.464947 -29.878382 0.000000 0.000000 0.000000 64.023796 5.770572 0.632708 6.970700 13.235213 16.883195 -0.802284 -4.051802 -12.711445 -34.230159 31.009428 -5.323629 -21.208670 -10.592040 -2.573999 0.000000 0.000000 0.000000 62.922879 -3.632832 4.062813 -4.946679 -20.490328 -15.146675 7.450948 5.217114 0.296133 -32.686393 -24.502776 5.684163 -22.569067 -0.910620 7.241057 0.000000 0.000000 0.000000 72.603709 0.900179 1.369914 10.031676 3.380763 1.009039 -4.519858 -1.997731 1.785951 -0.047537 0.214501 0.041014 0.000000 0.000000 0.000000 -1.933171 -0.455205 1.882663 -14.270943 11.050185 4.797911 -8.262634 -15.189395 -5.901587 0.000000 0.000000 0.000000 -2.202824 -1.294023 0.888725 1.522707 -1.200418 6.070590 6.082794 2.779681 -4.340290 -40.525705 -63.360960 -47.086822 -0.321431 -18.082507 -0.683777 0.000000 0.000000 0.000000 0.891184 -0.441040 1.987614 -3.396768 9.991402 10.627367 -3.329735 -1.176750 2.135354 -39.916667 42.027189 43.630794 -26.537909 40.888330 14.848339 0.000000 0.000000 0.000000 
7.511964 47.645287 -29.836977 0.000000 0.000000 0.000000 64.267039 6.285480 0.215175 6.145327 13.606428 17.189803 -1.699891 -3.452877 -12.269543 -32.866846 30.830907 -5.295118 -21.874536 -10.589264 -2.325264 0.000000 0.000000 0.000000 63.164736 -3.321391 3.792638 -4.931756 -20.505951 -15.013184 7.209715 4.134624 0.327895 -32.914262 -23.899576 4.797839 -22.529896 -0.710874 7.363682 0.000000 0.000000 0.000000 72.897530 1.113970 1.423025 9.654760 3.535273 1.302005 -4.223385 -2.213501 1.700821 -0.045939 0.214940 0.035495 0.000000 0.000000 0.000000 -1.546381 -0.643980 1.831511 -13.413665 10.951807 4.216546 -8.796448 -15.171575 -6.007753 0.000000 0.000000 0.000000 -1.749017 -1.487149 0.748054 1.516036 -1.897164 6.792357 6.436354 2.916873 -4.713086 -38.853917 -62.817134 -44.751772 -0.366836 -18.674541 -0.532362 0.000000 0.000000 0.000000 1.347107 -0.591108 1.929686 -3.623338 12.074999 9.987845 -3.070197 -1.230776 2.074906 -38.724051 39.836873 41.174863 -25.688331 43.674825 14.385089 0.000000 0.000000 0.000000 
7.085654 47.931908 -29.734957 0.000000 0.000000 0.000000 64.714963 6.764804 -0.211396 4.942188 13.807710 17.273446 -2.018909 -3.171395 -11.400120 -31.753655 30.443314 -5.463532 -22.413028 -10.571475 -1.992131 0.000000 0.000000 0.000000 63.521914 -3.036618 3.547629 -5.016696 -20.369412 -14.592399 6.785002 2.918597 0.300235 -33.171217 -23.407012 3.839388 -22.115835 -0.446655 7.486846 0.000000 0.000000 0.000000 73.399617 1.316849 1.385331 9.123776 3.681830 1.621588 -3.827406 -2.447014 1.587078 -0.031131 0.224081 0.024585 0.000000 0.000000 0.000000 -1.111823 -0.861954 1.748045 -12.572503 10.813436 3.648574 -9.375176 -15.171915 -6.138861 0.000000 0.000000 0.000000 -1.218213 -1.701659 0.594263 1.512540 -2.612692 7.582453 6.694636 2.773031 -5.043726 -36.437785 -62.129129 -41.462762 -0.780038 -19.346378 -0.574346 0.000000 0.000000 0.000000 1.890414 -0.769316 1.817359 -3.800418 14.261970 9.316679 -2.765668 -1.297070 2.267171 -37.917891 37.823019 38.704302 -24.806875 45.887304 13.861180 0.000000 0.000000 0.000000 
6.579791 48.318703 -29.613031 0.000000 0.000000 0.000000 65.327030 7.166672 -0.578422 3.318440 13.769188 17.130321 -1.632238 -3.269833 -10.170912 -31.244885 29.762860 -5.830622 -22.546405 -10.545733 -1.537117 0.000000 0.000000 0.000000 64.036507 -2.859892 3.419375 -5.425030 -20.147332 -13.957980 6.328316 1.645718 0.241129 -33.297480 -23.056106 2.942547 -21.489162 -0.161714 7.639115 0.000000 0.000000 0.000000 74.104431 1.433884 1.294229 8.540560 3.801534 1.918708 -3.332513 -2.681843 1.456062 -0.008059 0.222757 0.014857 0.000000 0.000000 0.000000 -0.638635 -1.087334 1.632714 -11.750063 10.642783 3.140814 -9.925521 -15.176486 -6.304109 0.000000 0.000000 0.000000 -0.578904 -1.919957 0.441589 1.523273 -3.353427 8.508112 6.968541 2.495159 -5.202580 -33.461220 -61.242823 -37.379918 -1.544800 -20.166750 -0.773953 0.000000 0.000000 0.000000 2.522442 -0.962370 1.659076 -3.923028 16.431335 8.661605 -2.425957 -1.420307 2.590482 -37.416036 36.282918 36.204029 -24.115069 47.473903 13.468822 0.000000 0.000000 0.000000 
6.030062 48.810722 -29.496363 0.000000 0.000000 0.000000 66.153353 7.434120 -0.835238 1.139278 13.374797 16.869080 -0.405477 -3.936355 -8.747508 -30.884650 28.867439 -6.863302 -22.525221 -10.456885 -0.912374 0.000000 0.000000 0.000000 64.709151 -2.871408 3.464408 -6.277666 -19.861077 -13.121192 5.972252 0.390022 0.145925 -33.170803 -22.909151 2.244467 -20.992030 0.077026 7.826508 0.000000 0.000000 0.000000 74.979057 1.492299 1.147614 8.027410 3.870485 2.163650 -2.733491 -2.883235 1.306097 0.014376 0.222922 0.003683 0.000000 0.000000 0.000000 -0.118267 -1.289340 1.493970 -10.995584 10.408068 2.741083 -10.357100 -15.203624 -6.546190 0.000000 0.000000 0.000000 0.154701 -2.111979 0.289040 1.556361 -4.187128 9.580507 7.195508 2.223992 -5.245145 -30.368001 -60.131940 -32.884287 -2.599366 -21.123455 -1.086271 0.000000 0.000000 0.000000 3.249334 -1.145483 1.448907 -3.977484 18.440630 8.017344 -2.077958 -1.553743 3.066665 -37.262493 35.495773 33.775374 -23.777015 48.394855 13.373819 0.000000 0.000000 0.000000 
